<svg xmlns="http://www.w3.org/2000/svg" width="207px" height="108px" viewBox="0 0 207 108" transform="rotate(0) scale(1, 1)">
<g>
<path d="M 11.12 102.37 C7.64,99.93 6.00,94.92 6.00,86.68 C6.00,77.52 8.46,73.02 14.28,71.57 C19.69,70.22 25.41,71.83 25.83,74.83 C26.12,76.88 25.92,77.03 24.15,76.08 C20.68,74.22 14.53,74.76 12.40,77.10 C9.63,80.17 9.63,94.83 12.40,97.90 C14.50,100.21 19.97,100.72 24.43,99.02 C26.44,98.26 27.00,98.36 27.00,99.47 C27.00,103.59 15.78,105.64 11.12,102.37 ZM 34.64 101.73 C30.00,97.09 29.80,85.75 34.29,81.26 C37.28,78.27 44.51,77.79 48.40,80.34 C53.23,83.51 54.26,95.99 50.11,101.11 C48.78,102.76 46.93,103.42 42.74,103.77 C37.77,104.18 36.86,103.95 34.64,101.73 ZM 45.78 99.44 C47.68,98.11 48.00,96.97 48.00,91.51 C48.00,84.33 46.56,82.00 42.12,82.00 C38.04,82.00 35.93,84.08 35.31,88.72 C34.00,98.53 39.31,103.97 45.78,99.44 ZM 60.55 101.75 C56.11,97.85 55.81,85.19 60.06,80.94 C62.53,78.47 69.57,78.30 72.17,80.65 C73.92,82.24 74.00,82.07 74.00,76.76 C74.00,72.50 74.39,71.07 75.67,70.57 C76.59,70.22 77.61,70.38 77.95,70.92 C78.76,72.24 79.21,99.75 78.46,102.13 C77.75,104.36 75.17,104.61 74.37,102.51 C73.86,101.20 73.55,101.20 71.68,102.51 C68.55,104.71 63.52,104.36 60.55,101.75 ZM 72.74 98.80 C74.68,97.19 74.38,86.08 72.35,83.83 C70.37,81.65 66.13,81.45 63.44,83.42 C61.88,84.56 61.50,86.06 61.50,91.01 C61.50,96.34 61.83,97.44 63.94,99.15 C66.43,101.17 70.06,101.02 72.74,98.80 ZM 88.30 102.04 C84.65,99.82 83.44,95.69 84.27,88.32 C85.00,81.83 88.23,78.83 94.50,78.83 C100.79,78.83 104.00,81.83 104.74,88.38 L 105.26 93.00 L 96.63 93.00 C87.24,93.00 86.31,93.69 89.85,98.06 C91.81,100.49 96.19,101.13 101.25,99.72 C103.39,99.13 104.00,99.30 104.00,100.51 C104.00,104.14 93.44,105.18 88.30,102.04 ZM 101.00 88.22 C101.00,87.24 100.30,85.44 99.44,84.22 C96.20,79.59 88.00,82.46 88.00,88.22 C88.00,89.74 88.94,90.00 94.50,90.00 C100.06,90.00 101.00,89.74 101.00,88.22 ZM 110.67 103.33 C110.30,102.97 110.00,97.34 110.00,90.83 C110.00,79.67 110.11,79.00 112.00,79.00 C113.39,79.00 114.00,79.67 114.00,81.17 L 114.00 83.35 L 116.31 81.17 C119.26,78.41 125.32,78.10 124.82,80.75 C124.60,81.90 123.38,82.61 121.27,82.81 C115.92,83.33 114.00,86.85 114.00,96.13 C114.00,102.02 113.66,104.00 112.67,104.00 C111.93,104.00 111.03,103.70 110.67,103.33 ZM 133.38 102.09 C129.43,99.68 128.00,95.56 128.00,86.60 C128.01,75.62 131.74,71.00 140.61,71.00 C149.09,71.00 153.00,76.27 153.00,87.72 C153.00,95.49 150.88,100.78 147.00,102.72 C143.32,104.56 136.94,104.26 133.38,102.09 ZM 146.50 97.91 C148.19,96.25 148.50,94.62 148.50,87.50 C148.50,80.10 148.22,78.78 146.27,76.83 C143.28,73.84 137.73,73.83 134.75,76.81 C132.95,78.60 132.48,80.38 132.23,86.26 C131.89,94.32 133.09,97.71 137.02,99.74 C140.03,101.29 143.80,100.56 146.50,97.91 ZM 159.00 91.50 C159.00,79.67 159.11,79.00 161.00,79.00 C162.14,79.00 163.00,79.67 163.00,80.56 C163.00,81.97 163.21,81.97 165.22,80.56 C166.44,79.70 169.34,79.00 171.67,79.00 C177.97,79.00 179.00,81.07 179.00,93.80 C179.00,103.11 178.83,104.11 177.25,103.81 C175.77,103.53 175.42,101.98 175.00,93.70 C174.48,83.48 173.80,82.05 169.47,82.02 C168.36,82.01 166.44,82.70 165.22,83.56 C163.19,84.98 163.00,85.93 163.00,94.56 C163.00,103.33 162.86,104.00 161.00,104.00 C159.11,104.00 159.00,103.33 159.00,91.50 ZM 189.36 102.83 C186.12,101.26 184.50,97.29 184.53,91.00 C184.57,84.04 186.67,80.46 191.49,79.13 C199.24,76.99 205.00,81.39 205.00,89.45 L 205.00 93.00 L 197.00 93.00 C189.24,93.00 189.00,93.07 189.00,95.38 C189.00,99.62 194.10,101.64 200.40,99.90 C205.05,98.62 205.81,99.19 203.08,101.92 C200.78,104.22 193.27,104.72 189.36,102.83 ZM 201.00 87.57 C201.00,84.44 198.53,82.00 195.36,82.00 C191.23,82.00 189.00,83.77 189.00,87.04 C189.00,89.99 189.02,90.00 195.00,90.00 C200.69,90.00 201.00,89.87 201.00,87.57 ZM 100.18 60.94 C98.33,60.20 98.01,59.56 98.60,57.76 C100.16,53.02 99.51,52.25 85.25,42.09 C77.41,36.51 71.00,31.76 71.00,31.53 C71.00,30.96 96.72,13.04 98.54,12.34 C99.69,11.91 100.00,12.76 100.00,16.31 C100.00,20.75 99.89,20.90 93.25,25.56 C89.54,28.17 86.13,30.63 85.68,31.02 C85.24,31.41 87.94,33.89 91.68,36.53 C95.43,39.17 98.71,41.50 98.96,41.71 C99.21,41.91 99.66,44.18 99.96,46.74 C100.47,51.16 100.80,50.35 106.39,30.95 C109.63,19.70 112.90,8.40 113.66,5.82 C115.01,1.22 115.08,1.16 118.15,2.04 C119.87,2.54 121.41,3.08 121.58,3.24 C121.74,3.41 118.98,13.66 115.43,26.02 C103.92,66.15 105.30,63.00 100.18,60.94 ZM 112.00 50.74 C112.00,49.98 112.71,47.28 113.57,44.75 C114.82,41.08 116.23,39.40 120.57,36.41 C125.50,33.01 127.23,31.01 125.25,31.00 C124.84,30.99 123.26,29.98 121.74,28.75 C119.18,26.66 119.06,26.24 120.04,22.75 C120.62,20.69 121.32,19.00 121.59,19.00 C122.43,19.00 139.96,31.47 139.98,32.08 C140.00,32.56 117.15,49.05 113.25,51.37 C112.49,51.82 112.00,51.57 112.00,50.74 Z" fill="#FFDB6E"/>
</g>
</svg>